<svg data-v-423bf9ae="" xmlns="http://www.w3.org/2000/svg" viewBox="0 0 259 90" class="iconLeft"><!----><!----><!----><g data-v-423bf9ae="" id="b606a434-1c25-4c49-ae77-02b67fec7a94" fill="black" transform="matrix(5.671077545620877,0,0,5.671077545620877,160.98449743308208,-3.6578468161068756)"><path d="M2.46 11.89L2.46 11.89L2.42 10.78L2.42 10.78Q2.42 8.15 3.26 5.81L3.26 5.81L3.26 5.81Q2.66 5.74 2.53 5.74L2.53 5.74L2.53 5.74Q1.97 5.74 1.62 5.96L1.62 5.96L1.62 5.96Q1.26 6.17 0.90 6.47L0.90 6.47L0.90 6.47Q0.36 6.92-0.21 6.92L-0.21 6.92L-0.21 6.92Q-0.45 6.92-0.57 6.81L-0.57 6.81L-0.57 6.81Q-0.70 6.71-0.73 6.59L-0.73 6.59L-0.73 6.59Q-0.76 6.48-0.77 6.26L-0.77 6.26L-0.77 6.26Q-0.78 6.03-0.81 5.91L-0.81 5.91L-0.81 5.91Q-0.84 5.78-0.84 5.66L-0.84 5.66L-0.84 5.66Q-0.84 5.53-0.63 5.35L-0.63 5.35L-0.63 5.35Q0.57 4.28 2.97 4.28L2.97 4.28L2.97 4.28Q3.43 4.28 3.89 4.33L3.89 4.33L4.00 4.07L4.00 4.07Q4.07 4.17 4.19 4.34L4.19 4.34L4.45 4.34L4.45 4.34Q5.77 4.34 7.34 3.81L7.34 3.81L7.34 3.81Q7.45 3.78 7.49 3.78L7.49 3.78L7.49 3.78Q7.71 3.78 7.71 4.02L7.71 4.02L7.71 4.02Q7.71 4.26 7.46 4.51L7.46 4.51L7.46 4.51Q6.22 5.88 4.14 5.85L4.14 5.85L4.14 5.85Q3.79 7.21 3.67 9.17L3.67 9.17L3.67 9.17Q3.54 11.13 3.51 11.40L3.51 11.40L3.51 11.40Q3.49 11.66 3.49 11.86L3.49 11.86L3.49 11.86Q3.49 12.05 3.61 12.63L3.61 12.63L3.61 12.63Q3.74 13.20 3.74 13.29L3.74 13.29L3.74 13.29Q3.74 13.69 3.32 13.69L3.32 13.69L3.32 13.69Q2.67 13.69 1.97 12.26L1.97 12.26L1.97 12.26Q1.83 12.01 1.83 11.78L1.83 11.78L1.83 11.78Q1.83 11.55 1.95 11.55L1.95 11.55L1.95 11.55Q2.06 11.55 2.22 11.77L2.22 11.77L2.22 11.77Q2.38 12.00 2.42 12.00L2.42 12.00L2.42 12.00Q2.46 12.00 2.46 11.89ZM7.80 11.89L7.80 11.89L7.76 10.78L7.76 10.78Q7.76 8.15 8.60 5.81L8.60 5.81L8.60 5.81Q7.99 5.74 7.87 5.74L7.87 5.74L7.87 5.74Q7.31 5.74 6.95 5.96L6.95 5.96L6.95 5.96Q6.59 6.17 6.23 6.47L6.23 6.47L6.23 6.47Q5.70 6.92 5.12 6.92L5.12 6.92L5.12 6.92Q4.89 6.92 4.76 6.81L4.76 6.81L4.76 6.81Q4.63 6.71 4.61 6.59L4.61 6.59L4.61 6.59Q4.58 6.48 4.56 6.26L4.56 6.26L4.56 6.26Q4.55 6.03 4.52 5.91L4.52 5.91L4.52 5.91Q4.49 5.78 4.49 5.66L4.49 5.66L4.49 5.66Q4.49 5.53 4.70 5.35L4.70 5.35L4.70 5.35Q5.91 4.28 8.30 4.28L8.30 4.28L8.30 4.28Q8.76 4.28 9.23 4.33L9.23 4.33L9.34 4.07L9.34 4.07Q9.41 4.17 9.52 4.34L9.52 4.34L9.79 4.34L9.79 4.34Q11.10 4.34 12.67 3.81L12.67 3.81L12.67 3.81Q12.78 3.78 12.82 3.78L12.82 3.78L12.82 3.78Q13.05 3.78 13.05 4.02L13.05 4.02L13.05 4.02Q13.05 4.26 12.80 4.51L12.80 4.51L12.80 4.51Q11.55 5.88 9.48 5.85L9.48 5.85L9.48 5.85Q9.13 7.21 9.00 9.17L9.00 9.17L9.00 9.17Q8.88 11.13 8.85 11.40L8.85 11.40L8.85 11.40Q8.82 11.66 8.82 11.86L8.82 11.86L8.82 11.86Q8.82 12.05 8.95 12.63L8.95 12.63L8.95 12.63Q9.07 13.20 9.07 13.29L9.07 13.29L9.07 13.29Q9.07 13.69 8.65 13.69L8.65 13.69L8.65 13.69Q8.01 13.69 7.31 12.26L7.31 12.26L7.31 12.26Q7.17 12.01 7.17 11.78L7.17 11.78L7.17 11.78Q7.17 11.55 7.28 11.55L7.28 11.55L7.28 11.55Q7.39 11.55 7.55 11.77L7.55 11.77L7.55 11.77Q7.71 12.00 7.76 12.00L7.76 12.00L7.76 12.00Q7.80 12.00 7.80 11.89ZM14.01 11.10L14.01 11.10L14.01 11.10Q14.01 12.40 14.25 12.40L14.25 12.40L14.25 12.40Q14.35 12.40 14.50 12.18L14.50 12.18L14.50 12.18Q14.73 11.80 15.02 11.17L15.02 11.17L15.02 11.17Q16.28 8.50 16.28 5.64L16.28 5.64L16.28 5.64Q16.28 4.94 16.23 4.40L16.23 4.40L16.23 4.40Q16.17 3.86 16.17 3.81L16.17 3.81L16.17 3.81Q16.17 3.29 16.56 3.29L16.56 3.29L16.56 3.29Q16.81 3.29 16.94 3.74L16.94 3.74L16.94 3.74Q17.23 4.86 17.23 6.26L17.23 6.26L17.23 6.26Q17.23 9.67 15.25 13.16L15.25 13.16L15.25 13.16Q14.83 13.87 14.29 13.87L14.29 13.87L14.29 13.87Q13.99 13.87 13.68 13.59L13.68 13.59L13.68 13.59Q12.80 12.78 12.80 11.13L12.80 11.13L12.80 11.13Q12.80 8.50 14 5.47L14 5.47L14 5.47Q14.06 5.33 14.06 5.25L14.06 5.25L14.06 5.25Q14.06 5.04 13.89 5.04L13.89 5.04L13.89 5.04Q13.80 5.04 13.65 5.14L13.65 5.14L13.65 5.14Q13.50 5.25 13.41 5.38L13.41 5.38L13.41 5.38Q13.31 5.52 13.22 5.70L13.22 5.70L13.22 5.70Q13.12 5.88 13.06 5.96L13.06 5.96L13.06 5.96Q12.26 7.06 11.80 7.32L11.80 7.32L11.80 7.32Q11.59 7.43 11.38 7.43L11.38 7.43L11.38 7.43Q11.16 7.43 10.91 7.18L10.91 7.18L10.91 7.18Q10.67 6.93 10.67 6.73L10.67 6.73L10.67 6.73Q10.67 6.54 10.75 6.31L10.75 6.31L10.75 6.31Q11.27 5.18 13.12 4.05L13.12 4.05L13.12 4.05Q13.45 3.84 13.93 3.84L13.93 3.84L13.93 3.84Q14.41 3.84 14.78 4.23L14.78 4.23L14.78 4.23Q15.16 4.63 15.16 5.22L15.16 5.22L15.16 5.22Q15.16 5.56 15.09 5.79L15.09 5.79L15.09 5.79Q15.02 6.02 14.90 6.43L14.90 6.43L14.90 6.43Q14.78 6.83 14.75 6.96L14.75 6.96L14.75 6.96Q14.71 7.08 14.61 7.46L14.61 7.46L14.61 7.46Q14.50 7.83 14.47 7.98L14.47 7.98L14.47 7.98Q14.43 8.13 14.35 8.47L14.35 8.47L14.35 8.47Q14.27 8.81 14.23 9.00L14.23 9.00L14.23 9.00Q14.20 9.20 14.15 9.51L14.15 9.51L14.15 9.51Q14.10 9.81 14.08 10.04L14.08 10.04L14.08 10.04Q14.01 10.74 14.01 11.10Z"></path></g><!----><g data-v-423bf9ae="" id="109f68e6-bfdb-441e-a3f4-3764de81d8a9" transform="matrix(1.4379293781848441,0,0,1.4379293781848441,-11.69659952208957,-9.014705762578338)" stroke="none" fill="black"><path d="M102.923 54.276l-6.311 6.407-41.002-41.05-41.026 41.05-6.395-6.407L55.584 6.887l.071.068.249-.071L75.281 26.08V12.474h8v22.35z"></path><path d="M47.281 40.474h17v29h-17z"></path></g><!----></svg>